# Blender 4.0.1
# www.blender.org
mtllib mushroom.mtl
o Cube
v -0.660961 4.071432 0.660961
v -0.660961 -0.000515 0.660961
v -0.660961 4.071432 -0.660961
v -0.660961 -0.000515 -0.660961
v 0.660961 4.071432 0.660961
v 0.660961 -0.000515 0.660961
v 0.660961 4.071432 -0.660961
v 0.660961 0.004120 -0.660961
v 0.000000 4.071432 -0.975147
v 0.000000 -0.000515 -0.975147
v 0.000000 4.071432 0.975147
v 0.000000 -0.000515 0.975147
v -0.975147 4.071432 0.000000
v -0.975147 -0.000515 0.000000
v 0.975147 4.071432 0.000000
v 0.975147 -0.000515 0.000000
v 0.000000 -0.000515 0.000000
v -0.975147 4.071432 0.000000
v -0.556933 1.577807 0.535759
v -0.556933 1.577807 -0.535759
v 0.556933 1.577807 -0.535759
v 0.556933 1.577807 0.535759
v 0.000000 1.577807 0.790431
v 0.000000 1.577807 -0.790431
v 0.821669 1.577807 0.000000
v -0.821669 1.577807 0.000000
v -0.556933 2.880393 -0.535759
v 0.556933 2.880393 -0.535759
v 0.556933 2.880393 0.535759
v 0.000000 2.880393 0.790431
v 0.000000 2.880393 -0.790431
v 0.821669 2.880393 0.000000
v -0.821669 2.880393 0.000000
v -0.556933 2.880393 0.535759
v -0.975147 5.741305 0.000000
v -0.660961 5.741305 0.660961
v 0.000000 5.741305 -0.975147
v -0.660961 5.741305 -0.660961
v 0.975147 5.741305 0.000000
v 0.660961 5.741305 -0.660961
v 0.000000 5.741305 0.975147
v 0.660961 5.741305 0.660961
v 0.000000 5.851584 0.000000
v -0.660961 4.071432 0.660961
v 0.000000 4.071432 -0.975147
v -0.660961 4.071432 -0.660961
v 0.975147 4.071432 0.000000
v 0.660961 4.071432 -0.660961
v 0.000000 4.071432 0.975147
v 0.660961 4.071432 0.660961
v -2.942217 3.545434 0.000000
v -2.051889 3.545434 2.051889
v 0.000000 3.545434 -2.942217
v -2.051889 3.545434 -2.051889
v 2.942217 3.545434 0.000000
v 2.051889 3.545434 -2.051889
v 0.000000 3.545434 2.942217
v 2.051889 3.545434 2.051889
v 2.942217 4.503899 0.000000
v 2.051889 4.503899 2.051889
v -2.051889 4.503899 -2.051889
v 0.000000 4.503899 -2.942217
v -2.942217 4.503899 0.000000
v -2.051889 4.503899 2.051889
v 2.051889 4.503899 -2.051889
v 0.000000 4.503899 2.942217
vn -0.9987 0.0510 -0.0000
vn -0.6991 0.0517 -0.7131
vn -0.5607 -0.6001 -0.5705
vn -0.8110 -0.5850 -0.0000
vn -0.0001 0.0573 -0.9984
vn 0.6991 0.0518 -0.7131
vn 0.5625 -0.5967 -0.5723
vn 0.0002 -0.5785 -0.8157
vn 0.9987 0.0510 0.0001
vn 0.6991 0.0517 0.7131
vn 0.5607 -0.6001 0.5705
vn 0.8108 -0.5853 -0.0002
vn -0.0000 0.0573 0.9984
vn -0.6991 0.0517 0.7131
vn -0.5607 -0.6001 0.5705
vn -0.0000 -0.5782 0.8159
vn -0.0000 0.7114 0.7028
vn -0.0000 -0.5661 -0.8243
vn 0.6283 -0.4588 -0.6283
vn -0.5040 0.6946 0.5133
vn 0.0009 -1.0000 -0.0009
vn -0.6980 0.7161 -0.0000
vn 0.8243 -0.5661 -0.0000
vn 0.6283 -0.4588 0.6283
vn -0.5040 0.6946 -0.5133
vn -0.6986 -0.0686 0.7122
vn -0.9977 -0.0677 -0.0000
vn 0.6986 -0.0686 -0.7122
vn 0.9977 -0.0677 -0.0000
vn -0.6986 -0.0686 -0.7122
vn -0.0000 -0.0760 -0.9971
vn 0.6986 -0.0686 0.7122
vn -0.0000 -0.0760 0.9971
vn -0.0000 0.7114 -0.7028
vn 0.5040 0.6946 -0.5133
vn 0.6980 0.7161 -0.0000
vn 0.5040 0.6946 0.5133
vn -0.0000 1.0000 -0.0000
vn -0.0000 0.9282 0.3720
vn 0.2662 0.9264 0.2662
vn 0.3720 0.9282 -0.0000
vn -0.3720 0.9282 -0.0000
vn -0.2662 0.9264 0.2662
vn -0.2662 0.9264 -0.2662
vn -0.0000 0.9282 -0.3720
vn 0.2662 0.9264 -0.2662
vn -0.0000 -0.5661 0.8243
vn -0.6283 -0.4588 0.6283
vn 0.6352 0.4394 -0.6352
vn -0.0000 0.4396 -0.8982
vn -0.4972 -0.7111 -0.4972
vn -0.0000 -0.7032 -0.7109
vn -0.8243 -0.5661 -0.0000
vn 0.7109 -0.7032 -0.0000
vn 0.4972 -0.7111 0.4972
vn -0.6283 -0.4588 -0.6283
vn -0.0000 0.4396 0.8982
vn 0.6352 0.4394 0.6352
vn -0.4972 -0.7111 0.4972
vn -0.7109 -0.7032 -0.0000
vn 0.8982 0.4396 -0.0000
vn -0.6352 0.4394 -0.6352
vn -0.8982 0.4396 -0.0000
vn -0.6352 0.4394 0.6352
vn 0.4972 -0.7111 -0.4972
vn -0.0000 -0.7032 0.7109
vt 0.768353 0.388430
vt 0.785837 0.436958
vt 0.643289 0.494642
vt 0.617530 0.419933
vt 0.814991 0.485577
vt 0.852060 0.530052
vt 0.719576 0.625342
vt 0.677465 0.562939
vt 0.817921 0.180844
vt 0.786543 0.231861
vt 0.630766 0.177705
vt 0.663406 0.099075
vt 0.766612 0.284794
vt 0.761349 0.338449
vt 0.607444 0.339943
vt 0.611842 0.258878
vt 0.887303 0.330493
vt 0.887316 0.330505
vt 0.882108 0.341510
vt 0.882092 0.341507
vt 0.896839 0.899832
vt 0.964164 0.931836
vt 0.920781 0.967158
vt 0.864836 0.967158
vt 0.928843 0.832506
vt 0.964165 0.875891
vt 0.872897 0.832505
vt 0.829513 0.867829
vt 0.829513 0.923774
vt 0.882992 0.353105
vt 0.883007 0.353096
vt 0.894017 0.359318
vt 0.894014 0.359339
vt 0.860253 0.129534
vt 0.707491 0.025892
vt 0.846336 0.339518
vt 0.851543 0.366403
vt 0.960355 0.245166
vt 0.905502 0.264714
vt 0.865609 0.393556
vt 0.897271 0.421132
vt 0.873500 0.284191
vt 0.852612 0.309957
vt 0.940138 0.438367
vt 0.910653 0.356365
vt 0.924693 0.340336
vt 0.915401 0.322260
vt 0.898676 0.321989
vt 0.284407 0.284407
vt 0.309165 0.223631
vt 0.340996 0.260582
vt 0.345183 0.309165
vt 0.223631 0.259649
vt 0.260582 0.227818
vt 0.227818 0.308233
vt 0.259649 0.345183
vt 0.308233 0.340996
vt 0.910641 0.356344
vt 0.924660 0.340330
vt 0.366241 0.478819
vt 0.203472 0.483295
vt 0.471500 0.742648
vt 0.327141 0.685764
vt 0.445825 0.558557
vt 0.507733 0.700887
vt 0.605022 0.739082
vt 0.747335 0.677132
vt 0.747335 0.851333
vt 0.602977 0.794449
vt 0.365343 0.085519
vt 0.478819 0.202573
vt 0.511447 0.834111
vt 0.454643 0.978670
vt 0.327141 0.859966
vt 0.469455 0.798016
vt 0.483295 0.365343
vt 0.089995 0.366241
vt 0.915385 0.322282
vt 0.898682 0.322010
vt 0.000158 0.161675
vt 0.085519 0.203472
vt 0.000158 0.397588
vt 0.171226 0.000158
vt 0.202573 0.089995
vt 0.568657 0.407140
vt 0.568657 0.171226
vt 0.161674 0.568657
vt 0.397588 0.568657
vt 0.407140 0.000158
vt 0.563030 0.702986
vt 0.619834 0.558427
vt 0.628652 0.978540
vt 0.566743 0.836210
s 1
usemtl Material.002
f 26/1/1 20/2/2 4/3/3 14/4/4
f 24/5/5 21/6/6 8/7/7 10/8/8
f 25/9/9 22/10/10 6/11/11 16/12/12
f 23/13/13 19/14/14 2/15/15 12/16/16
f 11/17/17 49/18/18 44/19/19 1/20/20
f 17/21/21 12/22/16 2/23/15 14/24/4
f 16/25/12 6/26/11 12/22/16 17/21/21
f 22/10/10 23/13/13 12/16/16 6/11/11
f 20/2/2 24/5/5 10/8/8 4/3/3
f 8/27/7 16/25/12 17/21/21 10/28/8
f 10/28/8 17/21/21 14/24/4 4/29/3
f 13/30/22 18/31/23 46/32/24 3/33/25
f 21/34/6 25/9/9 16/12/12 8/35/7
f 19/14/14 26/1/1 14/4/4 2/15/15
f 34/36/26 33/37/27 26/1/1 19/14/14
f 28/38/28 32/39/29 25/9/9 21/34/6
f 27/40/30 31/41/31 24/5/5 20/2/2
f 29/42/32 30/43/33 23/13/13 22/10/10
f 30/43/33 34/36/26 19/14/14 23/13/13
f 32/39/29 29/42/32 22/10/10 25/9/9
f 31/41/31 28/44/28 21/6/6 24/5/5
f 33/37/27 27/40/30 20/2/2 26/1/1
f 13/30/22 3/33/25 27/40/30 33/37/27
f 9/45/34 7/46/35 28/44/28 31/41/31
f 15/47/36 5/48/37 29/42/32 32/39/29
f 11/17/17 1/20/20 34/36/26 30/43/33
f 5/48/37 11/17/17 30/43/33 29/42/32
f 3/33/25 9/45/34 31/41/31 27/40/30
f 7/46/35 15/47/36 32/39/29 28/38/28
f 1/20/20 13/30/22 33/37/27 34/36/26
f 43/49/38 41/50/39 42/51/40 39/52/41
f 35/53/42 36/54/43 41/50/39 43/49/38
f 38/55/44 35/53/42 43/49/38 37/56/45
f 37/56/45 43/49/38 39/52/41 40/57/46
f 9/45/34 45/58/47 48/59/48 7/46/35
f 3/33/25 46/32/24 45/58/47 9/45/34
f 40/57/46 65/60/49 62/61/50 37/56/45
f 46/62/24 54/63/51 53/64/52 45/65/47
f 47/66/53 55/67/54 58/68/55 50/69/56
f 41/50/39 66/70/57 60/71/58 42/51/40
f 44/72/19 52/73/59 51/74/60 18/75/23
f 18/75/23 51/74/60 54/63/51 46/62/24
f 39/52/41 59/76/61 65/60/49 40/57/46
f 37/56/45 62/61/50 61/77/62 38/55/44
f 7/46/35 48/59/48 47/78/53 15/47/36
f 15/47/36 47/78/53 50/79/56 5/48/37
f 1/20/20 44/19/19 18/31/23 13/30/22
f 5/48/37 50/79/56 49/18/18 11/17/17
f 51/80/60 63/81/63 61/77/62 54/82/51
f 52/83/59 64/84/64 63/81/63 51/80/60
f 55/85/54 59/76/61 60/71/58 58/86/55
f 54/82/51 61/77/62 62/61/50 53/87/52
f 56/88/65 65/60/49 59/76/61 55/85/54
f 57/89/66 66/70/57 64/84/64 52/83/59
f 53/87/52 62/61/50 65/60/49 56/88/65
f 58/86/55 60/71/58 66/70/57 57/89/66
f 48/90/48 56/91/65 55/67/54 47/66/53
f 36/54/43 64/84/64 66/70/57 41/50/39
f 50/69/56 58/68/55 57/92/66 49/93/18
f 38/55/44 61/77/62 63/81/63 35/53/42
f 45/65/47 53/64/52 56/91/65 48/90/48
f 42/51/40 60/71/58 59/76/61 39/52/41
f 35/53/42 63/81/63 64/84/64 36/54/43
f 49/93/18 57/92/66 52/73/59 44/72/19
