# Blender 4.0.1
# www.blender.org
mtllib plane.mtl
o Plane
v -1.000000 0.000000 1.000000
v 1.000000 0.000000 1.000000
v -1.000000 0.000000 -1.000000
v 1.000000 0.000000 -1.000000
v -1.000000 0.000000 -0.000891
v 1.000000 0.000000 -0.000891
v 0.000000 0.000000 1.000000
v 0.000000 0.000000 -1.000000
v 0.000000 0.000000 -0.000891
vn -0.0000 1.0000 -0.0000
vt 0.500000 0.500445
vt 1.000000 0.500445
vt 1.000000 1.000000
vt 0.500000 1.000000
vt 0.500000 0.000000
vt 1.000000 0.000000
vt 0.000000 0.000000
vt 0.000000 0.500445
vt 0.502957 0.500445
vt 1.002957 0.500445
vt 1.002957 1.000000
vt 0.502957 1.000000
s 0
usemtl Material.001
f 9/1/1 6/2/1 4/3/1 8/4/1
f 7/5/1 2/6/1 6/2/1 9/1/1
f 1/7/1 7/5/1 9/1/1 5/8/1
f 5/9/1 9/10/1 8/11/1 3/12/1
