# Blender 4.0.1
# www.blender.org
mtllib floorPlane.mtl
o Plane
v -13.289048 0.000000 13.289048
v 13.289048 0.000000 13.289048
v -13.289048 0.000000 -13.289048
v 13.289048 0.000000 -13.289048
v 0.000000 0.000000 13.289048
v 0.000000 0.000000 -13.289048
v -13.289048 0.000000 0.000000
v 13.289048 0.000000 0.000000
v 0.000000 0.000000 0.000000
v 6.644524 0.000000 13.289048
v 6.644524 0.000000 -13.289048
v 6.644524 0.000000 0.000000
v -6.644524 0.000000 -13.289048
v -6.644524 0.000000 13.289048
v -6.644524 0.000000 0.000000
v -13.289048 0.000000 6.644524
v 13.289048 0.000000 6.644524
v 0.000000 0.000000 6.644524
v 6.644524 0.000000 6.644524
v -6.644524 0.000000 6.644524
v 13.289048 0.000000 -6.644524
v 0.000000 0.000000 -6.644524
v -13.289048 0.000000 -6.644524
v 6.644524 0.000000 -6.644524
v -6.644524 0.000000 -6.644524
v -3.322262 0.000000 13.289048
v -3.322262 0.000000 -13.289048
v -3.322262 0.000000 0.000000
v -3.322262 0.000000 6.644524
v -3.322262 0.000000 -6.644524
v -9.966786 0.000000 -13.289048
v -9.966786 0.000000 0.000000
v -9.966786 0.000000 13.289048
v -9.966786 0.000000 6.644524
v -9.966786 0.000000 -6.644524
v 3.322262 0.000000 -13.289048
v 3.322262 0.000000 0.000000
v 3.322262 0.000000 13.289048
v 3.322262 0.000000 6.644524
v 3.322262 0.000000 -6.644524
v 10.011145 0.000000 13.289048
v 10.011145 0.000000 -13.289048
v 10.011145 0.000000 0.000000
v 10.011145 0.000000 6.644524
v 10.011145 0.000000 -6.644524
v -13.289048 0.000000 9.966786
v 13.289048 0.000000 9.966786
v 0.000000 0.000000 9.966786
v 6.644524 0.000000 9.966786
v -6.644524 0.000000 9.966786
v -3.322262 0.000000 9.966786
v -9.966786 0.000000 9.966786
v 3.322262 0.000000 9.966786
v 10.011145 0.000000 9.966786
v 13.289048 0.000000 3.322262
v 0.000000 0.000000 3.322262
v 6.644524 0.000000 3.322262
v -6.644524 0.000000 3.322262
v -13.289048 0.000000 3.322262
v -3.322262 0.000000 3.322262
v -9.966786 0.000000 3.322262
v 3.322262 0.000000 3.322262
v 10.011145 0.000000 3.322262
v -13.289048 0.000000 -3.322262
v 13.289048 0.000000 -3.322262
v 0.000000 0.000000 -3.322262
v 6.644524 0.000000 -3.322262
v -6.644524 0.000000 -3.322262
v -3.322262 0.000000 -3.322262
v -9.966786 0.000000 -3.322262
v 3.322262 0.000000 -3.322262
v 10.011145 0.000000 -3.322262
v 13.289048 0.000000 -9.966786
v 0.000000 0.000000 -9.966786
v 6.644524 0.000000 -9.966786
v -6.644524 0.000000 -9.966786
v -13.289048 0.000000 -9.966786
v -3.322262 0.000000 -9.966786
v -9.966786 0.000000 -9.966786
v 3.322262 0.000000 -9.966786
v 10.011145 0.000000 -9.966786
vn -0.0000 1.0000 -0.0000
vt 1.291276 1.287770
vt 1.550360 1.287770
vt 1.550360 1.550360
vt 1.291276 1.550360
vt 0.237410 1.287770
vt 0.500000 1.287770
vt 0.500000 1.550360
vt 0.237410 1.550360
vt 0.237410 0.237410
vt 0.500000 0.237410
vt 0.500000 0.500000
vt 0.237410 0.500000
vt 1.291276 0.237410
vt 1.550360 0.237410
vt 1.550360 0.500000
vt 1.291276 0.500000
vt 0.762590 0.237410
vt 1.025180 0.237410
vt 1.025180 0.500000
vt 0.762590 0.500000
vt 0.762590 1.287770
vt 1.025180 1.287770
vt 1.025180 1.550360
vt 0.762590 1.550360
vt -0.287770 0.237410
vt -0.025180 0.237410
vt -0.025180 0.500000
vt -0.287770 0.500000
vt -0.287770 1.287770
vt -0.025180 1.287770
vt -0.025180 1.550360
vt -0.287770 1.550360
vt -0.287770 -0.287770
vt -0.025180 -0.287770
vt -0.025180 -0.025180
vt -0.287770 -0.025180
vt 0.762590 -0.287770
vt 1.025180 -0.287770
vt 1.025180 -0.025180
vt 0.762590 -0.025180
vt 1.291276 -0.287770
vt 1.550360 -0.287770
vt 1.550360 -0.025180
vt 1.291276 -0.025180
vt 0.237410 -0.287770
vt 0.500000 -0.287770
vt 0.500000 -0.025180
vt 0.237410 -0.025180
vt -0.287770 0.762590
vt -0.025180 0.762590
vt -0.025180 1.025180
vt -0.287770 1.025180
vt 0.762590 0.762590
vt 1.025180 0.762590
vt 1.025180 1.025180
vt 0.762590 1.025180
vt 0.237410 0.762590
vt 0.500000 0.762590
vt 0.500000 1.025180
vt 0.237410 1.025180
vt 1.291276 0.762590
vt 1.550360 0.762590
vt 1.550360 1.025180
vt 1.291276 1.025180
vt -0.550360 0.762590
vt -0.550360 1.025180
vt -0.550360 -0.287770
vt -0.550360 -0.025180
vt -0.550360 1.287770
vt -0.550360 1.550360
vt -0.550360 0.237410
vt -0.550360 0.500000
vt 1.025180 -0.550360
vt 1.291276 -0.550360
vt 0.500000 -0.550360
vt 0.762590 -0.550360
vt -0.550360 -0.550360
vt -0.287770 -0.550360
vt -0.025180 -0.550360
vt 0.237410 -0.550360
vt 1.550360 -0.550360
s 0
usemtl Material.001
f 81/1/1 73/2/1 4/3/1 42/4/1
f 78/5/1 74/6/1 6/7/1 27/8/1
f 60/9/1 56/10/1 9/11/1 28/12/1
f 63/13/1 55/14/1 8/15/1 43/16/1
f 62/17/1 57/18/1 12/19/1 37/20/1
f 80/21/1 75/22/1 11/23/1 36/24/1
f 61/25/1 58/26/1 15/27/1 32/28/1
f 79/29/1 76/30/1 13/31/1 31/32/1
f 52/33/1 50/34/1 20/35/1 34/36/1
f 53/37/1 49/38/1 19/39/1 39/40/1
f 54/41/1 47/42/1 17/43/1 44/44/1
f 51/45/1 48/46/1 18/47/1 29/48/1
f 70/49/1 68/50/1 25/51/1 35/52/1
f 71/53/1 67/54/1 24/55/1 40/56/1
f 69/57/1 66/58/1 22/59/1 30/60/1
f 72/61/1 65/62/1 21/63/1 45/64/1
f 68/50/1 69/57/1 30/60/1 25/51/1
f 50/34/1 51/45/1 29/48/1 20/35/1
f 58/26/1 60/9/1 28/12/1 15/27/1
f 76/30/1 78/5/1 27/8/1 13/31/1
f 64/65/1 70/49/1 35/52/1 23/66/1
f 46/67/1 52/33/1 34/36/1 16/68/1
f 77/69/1 79/29/1 31/32/1 3/70/1
f 59/71/1 61/25/1 32/28/1 7/72/1
f 66/58/1 71/53/1 40/56/1 22/59/1
f 48/46/1 53/37/1 39/40/1 18/47/1
f 74/6/1 80/21/1 36/24/1 6/7/1
f 56/10/1 62/17/1 37/20/1 9/11/1
f 67/54/1 72/61/1 45/64/1 24/55/1
f 49/38/1 54/41/1 44/44/1 19/39/1
f 57/18/1 63/13/1 43/16/1 12/19/1
f 75/22/1 81/1/1 42/4/1 11/23/1
f 10/73/1 41/74/1 54/41/1 49/38/1
f 5/75/1 38/76/1 53/37/1 48/46/1
f 1/77/1 33/78/1 52/33/1 46/67/1
f 14/79/1 26/80/1 51/45/1 50/34/1
f 26/80/1 5/75/1 48/46/1 51/45/1
f 41/74/1 2/81/1 47/42/1 54/41/1
f 38/76/1 10/73/1 49/38/1 53/37/1
f 33/78/1 14/79/1 50/34/1 52/33/1
f 19/39/1 44/44/1 63/13/1 57/18/1
f 18/47/1 39/40/1 62/17/1 56/10/1
f 16/68/1 34/36/1 61/25/1 59/71/1
f 20/35/1 29/48/1 60/9/1 58/26/1
f 34/36/1 20/35/1 58/26/1 61/25/1
f 39/40/1 19/39/1 57/18/1 62/17/1
f 44/44/1 17/43/1 55/14/1 63/13/1
f 29/48/1 18/47/1 56/10/1 60/9/1
f 12/19/1 43/16/1 72/61/1 67/54/1
f 9/11/1 37/20/1 71/53/1 66/58/1
f 7/72/1 32/28/1 70/49/1 64/65/1
f 15/27/1 28/12/1 69/57/1 68/50/1
f 43/16/1 8/15/1 65/62/1 72/61/1
f 28/12/1 9/11/1 66/58/1 69/57/1
f 37/20/1 12/19/1 67/54/1 71/53/1
f 32/28/1 15/27/1 68/50/1 70/49/1
f 24/55/1 45/64/1 81/1/1 75/22/1
f 22/59/1 40/56/1 80/21/1 74/6/1
f 23/66/1 35/52/1 79/29/1 77/69/1
f 25/51/1 30/60/1 78/5/1 76/30/1
f 35/52/1 25/51/1 76/30/1 79/29/1
f 40/56/1 24/55/1 75/22/1 80/21/1
f 30/60/1 22/59/1 74/6/1 78/5/1
f 45/64/1 21/63/1 73/2/1 81/1/1
