# Blender 4.0.1
# www.blender.org
mtllib bananaheadshark.mtl
o Cube.008
v 0.797156 -3.618800 0.964616
v 0.682832 -3.332957 0.899535
v 0.489601 -3.618800 0.376214
v 0.179993 -3.618801 0.964616
v 0.294318 -3.332957 0.899535
v 0.492502 -3.474203 0.540586
v 0.495490 -3.618800 1.263147
v 0.495490 -3.246005 1.084491
v 0.000000 0.009725 0.815301
v 0.000000 0.906593 0.020680
v 0.000000 0.009725 -0.865340
v 0.000000 -0.871276 0.020680
v 1.961585 0.009725 0.049931
v -1.867090 0.009725 0.930285
v 1.260352 0.009725 1.053889
v -2.184041 0.009725 -0.252593
v -2.025565 -0.602578 0.338846
v 1.610968 0.622028 0.551910
v -2.025565 0.622028 0.338846
v 1.610968 -0.602578 0.551910
v -2.780060 -0.018432 0.679589
v -2.814362 0.116675 0.551571
v -2.814362 -0.154370 0.551571
v -2.846993 -0.018432 0.429788
v -2.814362 -0.155184 0.551571
v -3.848978 0.238459 1.105044
v -3.828072 0.495337 0.821826
v -4.009246 -0.019997 0.870371
v -3.984406 0.238459 0.599620
v -4.009791 -0.021546 0.870517
v -3.281500 -0.002546 0.899956
v -3.282358 0.210565 0.676124
v -3.390802 -0.002546 0.492033
v -3.393344 -0.218251 0.705863
v -3.393012 -0.216966 0.705773
v 1.996090 0.009725 1.357606
v 2.167637 0.207945 1.258296
v 2.167637 -0.188494 1.258296
v 2.339184 0.009725 1.158985
v -1.071877 -2.212080 1.647159
v -0.741691 -0.327047 1.272502
v -0.743589 -2.437544 0.363866
v -0.730888 0.033498 0.257991
v 1.071877 -2.212080 1.647159
v 0.741691 -0.327047 1.272502
v 0.743589 -2.437544 0.363866
v 0.730888 0.033498 0.257991
v -0.963115 -1.135830 1.622372
v -0.761728 -1.349201 0.438276
v 0.761728 -1.349200 0.438276
v 0.963116 -1.135830 1.622372
v 0.000000 -2.489111 0.217331
v 0.000000 0.266529 0.257258
v 0.000000 -2.194193 1.919331
v 0.000000 -0.295484 1.496765
v 0.000000 -1.084695 1.814428
v 0.000000 -1.368194 0.331726
v -1.303475 -2.567623 1.098876
v -1.275560 -2.248549 0.666228
v -0.824771 -1.170493 1.361421
v -0.822228 -1.141422 0.691216
v -1.055719 -1.150288 1.361421
v -1.053176 -1.121216 0.691216
v -0.723505 -0.738617 0.722658
v -0.627527 -0.690600 1.228685
v -0.719678 -0.437419 1.228685
v -0.815656 -0.485436 0.722658
v 1.303475 -2.567623 1.098876
v 1.275560 -2.248549 0.666228
v 0.824771 -1.170493 1.361421
v 0.822228 -1.141422 0.691216
v 1.055719 -1.150288 1.361421
v 1.053176 -1.121216 0.691216
v 0.723505 -0.738617 0.722658
v 0.627527 -0.690600 1.228685
v 0.719678 -0.437419 1.228685
v 0.815656 -0.485436 0.722658
v -0.474584 -3.525393 1.200020
v -0.474584 -2.168845 1.319255
v -0.754467 -3.525393 0.920136
v -0.873702 -2.168845 0.920136
v -0.194700 -3.525393 0.920136
v -0.075465 -2.168845 0.920136
v -0.474584 -3.525393 0.640252
v -0.474584 -2.168845 0.521018
v -0.474584 -2.744916 1.147739
v -0.823068 -2.744916 0.799254
v -0.474584 -2.841645 0.459272
v -0.126099 -2.744916 0.799254
v -0.474584 -2.648188 0.442268
v 0.474584 -3.525393 1.200020
v 0.474584 -2.168845 1.319255
v 0.754467 -3.525393 0.920136
v 0.873702 -2.168845 0.920136
v 0.194700 -3.525393 0.920136
v 0.075465 -2.168845 0.920136
v 0.474584 -3.525393 0.640252
v 0.474584 -2.168845 0.521018
v 0.474584 -2.744916 1.147739
v 0.823068 -2.744916 0.799254
v 0.474584 -2.841645 0.459272
v 0.126099 -2.744916 0.799254
v 0.474584 -2.648188 0.442268
v -0.797156 -3.618800 0.964616
v -0.682832 -3.332957 0.899535
v -0.489601 -3.618800 0.376214
v -0.179993 -3.618801 0.964616
v -0.294318 -3.332957 0.899535
v -0.492502 -3.474203 0.540586
v -0.495490 -3.618800 1.263147
v -0.495490 -3.246005 1.084491
v 0.000000 -1.003589 2.696100
v 0.000000 -0.295576 1.948596
v -0.134715 -1.394356 1.593959
v -0.134715 -0.247531 1.251943
v 0.134715 -1.394356 1.593959
v 0.134715 -0.247531 1.251943
vn -0.0035 -0.2495 -0.9684
vn -0.8826 -0.4462 0.1483
vn 0.0130 0.7472 -0.6645
vn 0.0109 -0.3974 0.9176
vn 0.8818 -0.4501 0.1406
vn 0.6983 0.7108 -0.0851
vn 0.0107 0.8690 0.4948
vn -0.6984 0.7115 -0.0772
vn 0.0300 -0.9971 -0.0704
vn -0.4911 0.0024 -0.8711
vn 0.0789 -0.0034 -0.9969
vn 0.2764 0.9598 0.0484
vn -0.0717 -0.0033 0.9974
vn -0.2846 -0.0000 0.9587
vn -0.3005 0.9522 0.0550
vn -0.0787 0.0036 0.9969
vn 0.9787 -0.0000 0.2052
vn -0.0973 -0.0000 0.9953
vn 0.4353 -0.6703 0.6010
vn -0.2805 -0.9586 0.0486
vn 0.0319 0.9970 -0.0701
vn 0.2747 -0.9603 0.0479
vn -0.4642 -0.0208 -0.8855
vn 0.7225 -0.0000 -0.6914
vn 0.0417 -0.0175 0.9990
vn -0.2236 0.9734 0.0501
vn 0.3095 0.9459 -0.0969
vn -0.2770 0.2001 0.9398
vn 0.3493 -0.0979 0.9319
vn -0.1659 -0.0940 -0.9817
vn -0.3826 -0.6483 -0.6582
vn -0.7116 0.2020 -0.6729
vn -0.6603 -0.2374 0.7125
vn 0.1085 -0.6977 0.7081
vn -0.2051 0.9777 0.0443
vn 0.2643 -0.7026 0.6606
vn -0.3741 -0.9011 -0.2194
vn 0.4353 0.6703 0.6010
vn -0.2612 -0.6780 -0.6871
vn -0.6865 0.5728 0.4479
vn -0.7200 0.0249 -0.6935
vn -0.7894 0.2571 0.5575
vn -0.0000 -0.0096 -1.0000
vn 0.6394 0.5541 -0.5331
vn 0.7200 0.0249 -0.6935
vn 0.6865 0.5728 0.4479
vn 0.7894 0.2571 0.5575
vn -0.0000 0.2563 0.9666
vn 0.5532 -0.6248 -0.5510
vn -0.0000 -0.5661 0.8243
vn -0.0000 -0.7018 -0.7124
vn -0.0000 0.8576 -0.5143
vn -0.0000 0.6642 0.7476
vn -0.7309 -0.4958 0.4689
vn 0.7309 -0.4958 0.4689
vn -0.5532 -0.6248 -0.5510
vn -0.6394 0.5541 -0.5331
vn -0.2412 -0.6245 -0.7429
vn 0.6468 -0.1773 0.7417
vn -0.2038 -0.9570 0.2063
vn -0.6519 0.1911 0.7338
vn -0.0656 0.8129 -0.5787
vn -0.6894 0.2251 -0.6885
vn 0.6861 -0.1850 -0.7036
vn 0.8877 0.0278 0.4596
vn 0.1381 0.8793 0.4557
vn 0.7389 0.0111 -0.6737
vn 0.2412 -0.6245 -0.7429
vn 0.2038 -0.9570 0.2063
vn -0.6468 -0.1773 0.7417
vn 0.6519 0.1911 0.7338
vn 0.6894 0.2251 -0.6885
vn 0.0656 0.8129 -0.5787
vn -0.6861 -0.1850 -0.7036
vn -0.8877 0.0278 0.4596
vn -0.1381 0.8793 0.4557
vn -0.7389 0.0111 -0.6737
vn -0.0000 -0.1210 0.9927
vn -0.8385 0.5392 0.0787
vn -0.9940 -0.0839 -0.0699
vn -0.0000 0.0377 -0.9993
vn 0.8385 0.5392 0.0787
vn 0.9940 -0.0839 -0.0699
vn -0.7926 -0.6066 0.0613
vn 0.7926 -0.6066 0.0613
vn -0.0000 -0.5525 0.8335
vn -0.0000 0.6376 -0.7704
vn -0.0000 -0.1703 -0.9854
vn -0.0000 -0.6728 -0.7398
vn -0.0000 0.4698 0.8828
vn 0.7638 -0.6414 0.0717
vn -0.7638 -0.6414 0.0717
vn 0.8552 0.5141 0.0662
vn -0.8552 0.5141 0.0662
vn -0.0000 0.6232 0.7821
vn -0.0000 -0.4465 -0.8948
vn -0.0000 0.3552 -0.9348
vn -0.0000 -0.7482 0.6635
vn 0.0035 -0.2495 -0.9684
vn -0.0130 0.7472 -0.6645
vn 0.8826 -0.4462 0.1483
vn -0.0109 -0.3974 0.9176
vn -0.0108 0.8690 0.4948
vn -0.6983 0.7108 -0.0851
vn -0.8818 -0.4501 0.1406
vn 0.6984 0.7115 -0.0772
vn -0.0000 -0.1177 0.9931
vn -0.0000 0.7487 0.6629
vn -0.5980 0.5082 -0.6198
vn -0.6226 -0.7056 -0.3384
vn 0.5980 0.5082 -0.6198
vn 0.6226 -0.7056 -0.3384
vt 0.985158 0.309152
vt 0.966305 0.414195
vt 0.958626 0.334633
vt 0.880256 0.409356
vt 0.880287 0.323397
vt 0.919081 0.351047
vt 0.923828 0.368403
vt 0.906767 0.270141
vt 0.905607 0.218321
vt 0.982180 0.191689
vt 0.941260 0.374372
vt 0.959428 0.272080
vt 0.685720 0.919149
vt 0.447171 0.826172
vt 0.632331 0.789362
vt 0.743419 0.626738
vt 0.553654 0.561741
vt 0.716497 0.531312
vt 0.432246 0.750658
vt 0.387706 0.684694
vt 0.297410 0.041638
vt 0.266129 0.010357
vt 0.297410 0.010357
vt 0.295211 0.629108
vt 0.484169 0.426732
vt 0.594953 0.689815
vt 0.849715 0.492277
vt 0.730306 0.410089
vt 0.433868 0.919149
vt 0.336570 0.821102
vt 0.876265 0.775689
vt 0.789411 0.697163
vt 0.315585 0.774932
vt 0.885304 0.590081
vt 0.329650 0.796588
vt 0.856140 0.071979
vt 0.806245 0.135760
vt 0.821069 0.065914
vt 0.890854 0.075163
vt 0.927660 0.146511
vt 0.885884 0.146808
vt 0.008376 0.074713
vt 0.044681 0.001970
vt 0.042928 0.076442
vt 0.846204 0.143718
vt 0.347138 0.051823
vt 0.305330 0.011062
vt 0.348051 0.010110
vt 0.883148 0.014930
vt 0.863306 0.015492
vt 0.022426 0.140426
vt 0.903325 0.009855
vt 0.843765 0.009855
vt 0.852546 0.564604
vt 0.833598 0.528492
vt 0.266129 0.041638
vt 0.330130 0.845658
vt 0.290006 0.764368
vt 0.921277 0.619002
vt 0.924445 0.072964
vt 0.001820 0.002505
vt 0.305330 0.053927
vt 0.001820 0.135506
vt 0.286236 0.196502
vt 0.156574 0.274613
vt 0.201633 0.149815
vt 0.136278 0.360918
vt 0.279916 0.471102
vt 0.121699 0.448371
vt 0.211178 0.570465
vt 0.115112 0.580890
vt 0.262706 0.065095
vt 0.995745 0.849943
vt 0.872324 1.000000
vt 0.919410 0.813085
vt 0.305938 0.394971
vt 0.439750 0.326263
vt 0.450000 0.423885
vt 0.151412 0.000854
vt 0.091989 0.114385
vt 0.000288 0.571268
vt 0.000288 0.420737
vt 0.010184 0.335610
vt 0.033903 0.253257
vt 0.011301 0.698936
vt 0.402875 0.509991
vt 0.834723 0.809380
vt 0.763688 0.941424
vt 0.138764 0.682616
vt 0.311308 0.314694
vt 0.336483 0.125547
vt 0.995745 0.999882
vt 0.230154 0.655314
vt 0.488984 0.086412
vt 0.356171 0.187975
vt 0.449921 0.031725
vt 0.539765 0.211412
vt 0.453828 0.285631
vt 0.477265 0.203600
vt 0.555390 0.062975
vt 0.563203 0.223131
vt 0.449921 0.203600
vt 0.379609 0.270006
vt 0.387421 0.305162
vt 0.551484 0.293443
vt 0.520234 0.305162
vt 0.438203 0.254381
vt 0.571662 0.092490
vt 0.617734 0.018292
vt 0.625709 0.082328
vt 0.680598 0.068088
vt 0.743462 0.018292
vt 0.735487 0.082328
vt 0.789534 0.092490
vt 0.830370 0.308769
vt 0.786201 0.264600
vt 0.830370 0.264600
vt 0.778094 0.193692
vt 0.841079 0.256677
vt 0.778094 0.256677
vt 0.724682 0.169086
vt 0.768090 0.177248
vt 0.680598 0.089759
vt 0.680598 0.166351
vt 0.636514 0.169086
vt 0.593106 0.177248
vt 0.555833 0.029931
vt 0.680598 0.014392
vt 0.805362 0.029931
vt 0.786201 0.308769
vt 0.841079 0.193692
vt 0.571662 0.092490
vt 0.625709 0.082328
vt 0.680598 0.068088
vt 0.735487 0.082328
vt 0.743462 0.018292
vt 0.789534 0.092490
vt 0.800959 0.373477
vt 0.845128 0.329308
vt 0.845128 0.373477
vt 0.778493 0.195013
vt 0.841478 0.257998
vt 0.778493 0.257998
vt 0.768090 0.177248
vt 0.680598 0.089759
vt 0.680598 0.166351
vt 0.636514 0.169086
vt 0.593106 0.177248
vt 0.555833 0.029931
vt 0.805362 0.029931
vt 0.800959 0.329308
vt 0.841478 0.195013
vt 0.985112 0.309153
vt 0.958687 0.334624
vt 0.880485 0.323709
vt 0.880344 0.409403
vt 0.923817 0.368371
vt 0.941172 0.374355
vt 0.966344 0.414231
vt 0.906862 0.270163
vt 0.982066 0.191734
vt 0.959609 0.272019
vt 0.919010 0.351020
vt 0.905155 0.218198
vt 0.037469 0.729907
vt 0.147135 0.695658
vt 0.220231 0.726562
vt 0.129016 0.824100
vt 0.242190 0.747098
vt 0.150976 0.844635
vt 0.277917 0.817961
vt 0.251083 0.929674
vt 0.050868 0.929674
vt 0.284435 0.679916
s 1
usemtl Material
f 3/1/1 4/2/2 6/3/3
f 7/4/4 1/5/5 2/6/6 8/7/7
f 7/8/4 4/9/2 3/10/1
f 6/3/3 8/7/7 2/6/6
f 1/5/5 6/3/3 2/6/6
f 6/3/3 5/11/8 8/7/7
f 3/10/1 1/12/5 7/8/4
f 4/2/2 7/4/4 8/7/7 5/11/8
f 6/3/3 1/5/5 3/1/1
f 4/2/2 5/11/8 6/3/3
f 12/13/9 16/14/10 11/15/11
f 18/16/12 9/17/13 15/18/14
f 9/17/13 19/19/15 14/20/16
f 39/21/17 36/22/18 38/23/19
f 9/17/13 17/24/20 12/25/9
f 10/26/21 16/14/10 19/19/15
f 38/27/19 15/18/14 20/28/22
f 17/29/20 24/30/23 16/14/10
f 20/31/22 11/15/11 13/32/24
f 21/33/25 17/24/20 14/20/16
f 39/34/17 20/31/22 13/32/24
f 18/16/12 39/34/17 13/32/24
f 9/17/13 20/28/22 15/18/14
f 14/20/16 22/35/26 21/33/25
f 18/16/12 11/15/11 10/26/21
f 22/35/26 16/14/10 24/30/23
f 32/36/27 26/37/28 31/38/29
f 33/39/30 30/40/31 29/41/32
f 31/42/29 28/43/33 35/44/34
f 32/36/27 29/41/32 27/45/35
f 29/46/32 26/47/28 27/48/35
f 24/49/23 32/36/27 22/50/26
f 23/51/36 31/42/29 35/44/34
f 25/52/37 33/39/30 24/49/23
f 21/53/25 32/36/27 31/38/29
f 37/54/38 15/18/14 36/55/18
f 12/13/9 17/29/20 16/14/10
f 18/16/12 10/26/21 9/17/13
f 9/17/13 10/26/21 19/19/15
f 39/21/17 37/56/38 36/22/18
f 9/17/13 14/20/16 17/24/20
f 10/26/21 11/15/11 16/14/10
f 38/27/19 36/55/18 15/18/14
f 17/29/20 25/57/37 24/30/23
f 20/31/22 12/13/9 11/15/11
f 21/33/25 25/58/37 17/24/20
f 39/34/17 38/59/19 20/31/22
f 18/16/12 37/54/38 39/34/17
f 9/17/13 12/25/9 20/28/22
f 14/20/16 19/19/15 22/35/26
f 18/16/12 13/32/24 11/15/11
f 22/35/26 19/19/15 16/14/10
f 32/36/27 27/45/35 26/37/28
f 33/39/30 34/60/39 30/40/31
f 31/42/29 26/61/28 28/43/33
f 32/36/27 33/39/30 29/41/32
f 29/46/32 28/62/33 26/47/28
f 24/49/23 33/39/30 32/36/27
f 23/51/36 21/63/25 31/42/29
f 25/52/37 34/60/39 33/39/30
f 21/53/25 22/50/26 32/36/27
f 37/54/38 18/16/12 15/18/14
f 41/64/40 49/65/41 48/66/42
f 57/67/43 47/68/44 50/69/45
f 50/69/45 45/70/46 51/71/47
f 56/72/48 41/64/40 48/66/42
f 46/73/49 54/74/50 52/75/51
f 53/76/52 41/77/40 55/78/53
f 54/79/50 48/66/42 40/80/54
f 50/69/45 44/81/55 46/82/49
f 57/67/43 46/82/49 52/83/51
f 40/80/54 49/65/41 42/84/56
f 42/84/56 57/67/43 52/83/51
f 51/71/47 54/85/50 44/81/55
f 53/76/52 45/86/46 47/68/44
f 42/87/56 54/74/50 40/88/54
f 45/70/46 56/89/48 51/71/47
f 43/90/57 57/67/43 49/65/41
f 41/64/40 43/90/57 49/65/41
f 57/67/43 53/76/52 47/68/44
f 50/69/45 47/68/44 45/70/46
f 56/72/48 55/91/53 41/64/40
f 46/73/49 44/92/55 54/74/50
f 53/76/52 43/90/57 41/77/40
f 54/79/50 56/72/48 48/66/42
f 50/69/45 51/71/47 44/81/55
f 57/67/43 50/69/45 46/82/49
f 40/80/54 48/66/42 49/65/41
f 42/84/56 49/65/41 57/67/43
f 51/71/47 56/89/48 54/85/50
f 53/76/52 55/78/53 45/86/46
f 42/87/56 52/75/51 54/74/50
f 45/70/46 55/93/53 56/89/48
f 43/90/57 53/76/52 57/67/43
f 59/94/58 60/95/59 58/96/60
f 62/97/61 67/98/62 63/99/63
f 62/97/61 59/94/58 58/100/60
f 60/101/59 62/97/61 58/100/60
f 63/99/63 61/102/64 59/94/58
f 65/103/65 67/98/62 66/104/66
f 62/97/61 65/105/65 66/106/66
f 63/99/63 64/107/67 61/102/64
f 60/95/59 64/107/67 65/103/65
f 59/94/58 61/102/64 60/95/59
f 62/97/61 66/106/66 67/98/62
f 62/97/61 63/99/63 59/94/58
f 65/103/65 64/107/67 67/98/62
f 62/97/61 60/101/59 65/105/65
f 63/99/63 67/98/62 64/107/67
f 60/95/59 61/102/64 64/107/67
f 69/94/68 68/96/69 70/95/70
f 72/97/71 73/99/72 77/98/73
f 72/97/71 68/100/69 69/94/68
f 70/101/70 68/100/69 72/97/71
f 73/99/72 69/94/68 71/102/74
f 75/103/75 76/104/76 77/98/73
f 72/97/71 76/106/76 75/105/75
f 73/99/72 71/102/74 74/107/77
f 70/95/70 75/103/75 74/107/77
f 69/94/68 70/95/70 71/102/74
f 72/97/71 77/98/73 76/106/76
f 72/97/71 69/94/68 73/99/72
f 75/103/75 77/98/73 74/107/77
f 72/97/71 75/105/75 70/101/70
f 73/99/72 74/107/77 77/98/73
f 70/95/70 74/107/77 71/102/74
f 86/108/78 81/109/79 87/110/80
f 81/109/79 90/111/81 87/110/80
f 90/111/81 83/112/82 89/113/83
f 83/112/82 86/114/78 89/113/83
f 80/115/84 82/116/85 78/117/86
f 81/118/79 83/119/82 85/120/87
f 82/121/85 86/114/78 78/122/86
f 88/123/88 82/121/85 84/124/89
f 80/125/84 88/123/88 84/124/89
f 86/108/78 80/125/84 78/126/86
f 88/123/88 90/111/81 89/113/83
f 87/110/80 90/111/81 88/123/88
f 82/121/85 89/113/83 86/114/78
f 86/108/78 79/127/90 81/109/79
f 81/109/79 85/128/87 90/111/81
f 90/111/81 85/128/87 83/112/82
f 83/112/82 79/129/90 86/114/78
f 80/115/84 84/130/89 82/116/85
f 81/118/79 79/131/90 83/119/82
f 88/123/88 89/113/83 82/121/85
f 80/125/84 87/110/80 88/123/88
f 86/108/78 87/110/80 80/125/84
f 99/132/78 100/133/83 94/109/91
f 94/109/91 100/133/83 103/134/81
f 103/134/81 102/135/80 96/136/92
f 96/136/92 102/135/80 99/137/78
f 93/138/93 95/139/94 91/140/95
f 94/141/91 96/142/92 98/143/96
f 95/121/94 91/144/95 99/137/78
f 101/145/88 97/146/97 95/121/94
f 93/147/93 97/146/97 101/145/88
f 99/132/78 91/148/95 93/147/93
f 101/145/88 102/135/80 103/134/81
f 100/133/83 101/145/88 103/134/81
f 95/121/94 99/137/78 102/135/80
f 99/132/78 94/109/91 92/149/98
f 94/109/91 103/134/81 98/128/96
f 103/134/81 96/136/92 98/128/96
f 96/136/92 99/137/78 92/150/98
f 93/138/93 97/151/97 95/139/94
f 94/141/91 92/152/98 96/142/92
f 101/145/88 95/121/94 102/135/80
f 93/147/93 101/145/88 100/133/83
f 99/132/78 93/147/93 100/133/83
f 106/153/99 109/154/100 107/155/101
f 110/156/102 111/157/103 105/158/104 104/159/105
f 110/160/102 106/161/99 107/162/101
f 109/154/100 105/158/104 111/157/103
f 104/159/105 105/158/104 109/154/100
f 109/154/100 111/157/103 108/163/106
f 106/161/99 110/160/102 104/164/105
f 107/155/101 108/163/106 111/157/103 110/156/102
f 109/154/100 106/153/99 104/159/105
f 107/155/101 109/154/100 108/163/106
f 112/165/107 113/166/108 115/167/109 114/168/110
f 114/168/110 115/167/109 117/169/111 116/170/112
f 116/170/112 117/169/111 113/171/108 112/172/107
f 114/168/110 116/170/112 112/173/107
f 117/169/111 115/167/109 113/174/108
